# xmcd CD database file
#
# Track frame offsets:
#	150
#	14650
#	30771
#	47280
#	62157
#	72645
#	89019
#	109367
#	126442
#	141428
#	157079
#	171593
#
# Disc length: 2455 seconds
#
# Revision: 2
# Processed by: cddbd v1.5.1PL2 Copyright (c) Steve Scherf et al.
# Submitted via: CDex 1.50
#
DISCID=b609950c
DTITLE=Variados - Country Collection - Volume 4
DYEAR=1997
DGENRE=Country
TTITLE0=July Feel - Take Me As I Am
TTITLE1=don Williams - It's Must Be Love
TTITLE2=Gretchen Peters - A Room With A View
TTITLE3=Joe Nichols - She Cold Careless
TTITLE4=Luca Trail - Boy With The Thorn In His Side
TTITLE5=Lila Braent - Love Hurts
TTITLE6=Ynaia Arduz - Time After Time
TTITLE7=Barney Will - Amy's Back In Austin
TTITLE8=Tomy Master - Something In The Way She Moves
TTITLE9=Tony Sands - Yellow River
TTITLE10=Bellamy Brothers - Get A Little Crazy
TTITLE11=Bryan Smith - Eyes In The Back Of Her Heart
EXTD=YEAR: 1997
EXTT0=
EXTT1=
EXTT2=
EXTT3=
EXTT4=
EXTT5=
EXTT6=
EXTT7=
EXTT8=
EXTT9=
EXTT10=
EXTT11=
PLAYORDER=
